<?xml version="1.0" encoding="utf-8"?>
<!-- Generator: Adobe Illustrator 23.0.3, SVG Export Plug-In . SVG Version: 6.00 Build 0)  -->
<svg version="1.1" id="Laag_1" xmlns="http://www.w3.org/2000/svg" xmlns:xlink="http://www.w3.org/1999/xlink" x="0px" y="0px"
	 viewBox="0 0 510.24 510.24" style="enable-background:new 0 0 510.24 510.24;" xml:space="preserve">
<style type="text/css">
	.st0{fill:url(#SVGID_1_);}
	.st1{fill:url(#SVGID_2_);}
	.st2{fill:url(#SVGID_3_);}
	.st3{fill:url(#SVGID_4_);}
	.st4{fill:url(#SVGID_5_);}
	.st5{fill:url(#SVGID_6_);}
	.st6{fill:url(#SVGID_7_);}
	.st7{fill:url(#SVGID_8_);}
	.st8{fill:url(#SVGID_9_);}
	.st9{fill:url(#SVGID_10_);}
	.st10{fill:url(#SVGID_11_);}
	.st11{fill:url(#SVGID_12_);}
	.st12{fill:url(#SVGID_13_);}
	.st13{fill:url(#SVGID_14_);}
	.st14{fill:url(#SVGID_15_);}
	.st15{fill:url(#SVGID_16_);}
	.st16{fill:url(#SVGID_17_);}
	.st17{fill:url(#SVGID_18_);}
	.st18{fill:url(#SVGID_19_);}
	.st19{fill:url(#SVGID_20_);}
	.st20{fill:url(#SVGID_21_);}
	.st21{fill:url(#SVGID_22_);}
	.st22{fill:url(#SVGID_23_);}
	.st23{fill:url(#SVGID_24_);}
	.st24{fill:url(#SVGID_25_);}
	.st25{fill:url(#SVGID_26_);}
	.st26{fill:url(#SVGID_27_);}
	.st27{fill:url(#SVGID_28_);}
	.st28{fill:url(#SVGID_29_);}
	.st29{fill:url(#SVGID_30_);}
	.st30{fill:url(#SVGID_31_);}
	.st31{fill:url(#SVGID_32_);}
	.st32{fill:url(#SVGID_33_);}
	.st33{fill:url(#SVGID_34_);}
	.st34{fill:url(#SVGID_35_);}
</style>
<g id="_x35_gjfTx.tif">
	<g>
		<linearGradient id="SVGID_1_" gradientUnits="userSpaceOnUse" x1="120.6144" y1="327.5943" x2="126.4962" y2="-19.4314">
			<stop  offset="0" style="stop-color:#6DC0C5"/>
			<stop  offset="0.1468" style="stop-color:#81C6CB"/>
			<stop  offset="0.4281" style="stop-color:#ACD7DB"/>
			<stop  offset="0.8119" style="stop-color:#E5F2F3"/>
			<stop  offset="1" style="stop-color:#FFFFFF"/>
		</linearGradient>
		<path class="st0" d="M161.02,345.81c-3.97-1.52-6.2-4.43-6.86-8.58c-0.38-2.4,0.11-4.54,1.86-6.34c0.28-0.29,0.49-0.89,0.39-1.27
			c-1-4.09,0.04-7.91,1.38-11.73c1.2-3.43,2.47-6.86,3.28-10.39c0.42-1.85,0.04-3.92-0.18-5.87c-0.17-1.46-1.13-2.52-2.44-3.21
			c-0.68-0.36-1.36-0.7-2.05-1.02c-2.42-1.11-4.09-2.88-4.87-5.46c-0.42-1.38-0.84-2.75-1.33-4.1c-0.64-1.76-1.53-3.34-3.31-4.26
			c-0.34-0.18-0.67-0.95-0.56-1.31c0.56-1.74,1.18-3.47,1.96-5.11c0.71-1.5,1.74-2.84,2.47-4.33c0.99-2,0.84-4.02-0.41-5.9
			c-0.24-0.36-0.78-0.86-1.07-0.79c-0.4,0.09-0.71,0.63-1.01,1.02c-0.18,0.24-0.27,0.55-0.47,0.98c-0.51-0.31-0.97-0.55-1.39-0.85
			c-4.72-3.38-9.41-6.8-14.16-10.13c-0.57-0.4-1.5-0.59-2.2-0.48c-4.11,0.68-7.69-0.5-10.5-3.37c-2.66-2.72-4.93-5.82-7.37-8.76
			c-1.52-1.84-3.01-3.7-4.54-5.52c-0.33-0.4-0.77-0.71-1.34-1.24c-0.27,1.61,0.36,2.68,1.07,3.67c0.76,1.05,1.63,2.04,2.49,3.01
			c0.83,0.94,1.7,1.83,2.57,2.75c-1.24,0.96-1.93,0.94-2.84-0.07c-0.39-0.43-0.71-0.93-1.02-1.42c-0.87-1.37-1.85-2.58-3.69-2.58
			c-0.11-3.03-1.57-5.29-3.6-7.27c-1.71-1.67-3.47-3.27-5.1-5.01c-3.14-3.37-4.1-7.41-3.32-11.88c0.17-0.96-0.13-1.48-0.81-2.18
			c-1.91-1.96-3.65-4.08-5.46-6.14c-0.15-0.17-0.26-0.38-0.44-0.51c-0.56-0.43-1.14-0.82-1.71-1.23c-0.62,0.92,0.43,1.2,0.67,1.78
			c0.13,0.32,0.05,0.73,0.07,1.09c-0.32-0.02-0.68,0.06-0.94-0.06c-1.42-0.7-2.7-1.52-2.37-3.47c0.04-0.24-0.17-0.62-0.38-0.81
			c-5.4-4.99-11.59-7.46-19.01-5.83c-1.07,0.24-2.07,0.81-3.21,1.27c-0.06-0.55-0.12-1.05-0.18-1.56c-0.13-0.07-0.25-0.14-0.38-0.22
			c-0.49,0.77-1.09,1.5-1.41,2.34c-0.12,0.3,0.44,0.86,0.75,1.41c-4.34,2.55-9.58,2.63-14.4,4.2c1.87-2.72,5.72-2.15,7.85-4.55
			c-0.76-1.04-1.72-1.1-2.72-0.99c-1.81,0.2-1.94,0.11-2.24-1.65c-1.76,0.96-3.17,0.25-4.57-0.86c-0.99-0.79-0.77-1.52,0.05-2.05
			c0.85-0.54,1.86-0.84,2.82-1.2c0.74-0.27,1.52-0.46,2.28-0.69c-0.02-0.15-0.04-0.3-0.06-0.45c-1.06,0.06-2.13,0.08-3.19,0.18
			c-1.68,0.17-3.33,0.22-4.73-0.96c0-0.18,0-0.36,0-0.54c1.56-1.36,3.4-1.22,5.25-0.96c0.91,0.13,1.82,0.27,3.03,0.45
			c-1.65-2.26-3.96-2.28-6.44-2.91c0.85-0.52,1.38-0.99,2-1.19c1.28-0.42,2.63-0.6,3.9-1.05c1.66-0.59,3.26-1.33,5.26-2.17
			c2.72,1.28,6.16,1.47,9.63,1.68c4.12,0.25,8.3,0.32,12.32,1.14c2.41,0.49,4.49,0.59,6.86-0.02c6.61-1.71,13.21-0.83,19.77,0.59
			c0.6,0.13,1.21,0.24,1.93,0.38c-0.15-1.91-1.72-2.64-2.66-3.91c-2.25,1.18-4.57,1.52-6.97,0.91c-0.49-0.12-0.93-0.44-1.39-0.67
			c0.26-0.49,0.5-0.98,0.78-1.45c0.11-0.18,0.44-0.3,0.46-0.47c0.2-1.66,1.46-1.34,2.53-1.39c6.11-0.24,12.02,0.55,17.61,3.19
			c0.37,0.17,0.88,0.03,1.33,0.03c-0.08-0.41-0.1-0.84-0.26-1.22c-0.55-1.31-1.41-1.84-2.98-1.78c-1.81,0.07-3.65-0.34-5.44-0.68
			c-1.58-0.3-3.11-0.96-4.69-1.17c-1.53-0.21-3.11-0.04-4.65-0.04c1.08-1.43,2.79-2.15,4.63-2.07c2.5,0.12,4.99,0.54,7.46,0.95
			c2.69,0.44,5.35,1.35,8.07,0.28c0.79,1.52-0.63,2.13-1,2.83c2.25,1.95,4.42,3.83,6.8,5.89c-1.85,0.46-3.32,0.83-4.79,1.2
			c0.02,0.18,0.04,0.36,0.06,0.54c2.8,1.47,5.78-0.05,8.64,0.5c0.11-0.13,0.22-0.26,0.34-0.39c-0.37-0.63-0.73-1.27-1.15-1.99
			c0.81-0.93,1.36-0.91,2.26,0.34c0.34,0.47,0.58,1.11,1.04,1.39c0.54,0.33,1.37,0.62,1.88,0.42c0.37-0.15,0.62-1.14,0.55-1.71
			c-0.14-1.09-0.54-2.14-0.55-3.38c2.56,1.6,5.17,3.14,7.67,4.84c0.91,0.62,1.53,0.58,2.22-0.13c0.49-0.51,0.95-1.05,1.62-1.81
			c-1.06-0.3-2.07-0.6-3.07-0.87c-0.82-0.22-1.8-0.19-2.45-0.64c-0.64-0.45-1-1.35-1.4-2.1c-0.08-0.16,0.16-0.7,0.34-0.75
			c1.67-0.39,3.36-0.72,5.2-1.09c0.06,1.08,0.11,1.82,0.15,2.51c1.42-0.68,2.75-1.52,4.2-1.96c2.61-0.79,5.16,0,7.69,0.67
			c3.21,0.86,6.43,1.66,9.63,2.53c0.33,0.09,0.66,0.4,0.85,0.7c0.49,0.79,0.9,1.62,1.17,2.13c2.58,0.97,4.97,1.87,7.36,2.77
			c-0.62,1.5-1.44,1.97-2.94,1.63c-1.05-0.24-2.07-0.6-3.12-0.83c-0.27-0.06-0.6,0.17-0.9,0.27c0.16,0.24,0.27,0.56,0.49,0.71
			c0.66,0.46,1.43,0.79,2.03,1.31c0.31,0.28,0.5,0.88,0.45,1.3c-0.03,0.25-0.66,0.62-1,0.6c-1.86-0.12-3.74-0.22-5.56-0.58
			c-1.71-0.34-3.32-1.16-5.03-1.49c-1.78-0.34-3.63-0.34-5.45-0.48c0.13-1.12,0.72-1.63,2.27-1.8c0.75-0.08,1.56-0.08,2.24-0.36
			c0.52-0.22,0.96-0.78,1.26-1.29c0.14-0.22-0.04-0.82-0.26-1.02c-0.17-0.15-0.8-0.04-0.98,0.16c-0.83,0.99-1.78,1.47-3.27,0.9
			c0.43-0.59,0.83-1.14,1.22-1.67c-1.72-1.72-4.76-1.93-7.25-0.54c0.01,0.08-0.01,0.19,0.03,0.25c0.4,0.61,0.81,1.21,1.22,1.81
			c-0.71,0.3-1.4,0.74-2.14,0.88c-1.27,0.23-2.57,0.27-4.02,0.69c0.71,0.32,1.4,0.72,2.15,0.94c0.94,0.27,1.98,0.27,2.88,0.63
			c0.68,0.28,1.21,0.94,1.94,1.53c-1.81-0.1-3.25-0.26-4.69-0.25c-1.42,0.01-2.6-0.26-3.16-1.75c-2.17,0.96-4.32,1.85-6.41,2.85
			c-1.46,0.7-2.55,1.77-3.06,3.41c-0.27,0.86-0.02,1.33,0.65,1.81c2.61,1.86,5.62,2.55,8.68,3.14c1.81,0.35,3.62,0.64,5.52,0.97
			c-0.1,1.21,0.45,1.9,1.52,2.39c0.4,0.18,0.5,1.01,0.81,1.72c0.55,0,1.48,0,2.7,0c-0.51-1.52-0.98-2.92-1.41-4.22
			c1.12-0.17,2.17-0.33,3.4-0.52c-0.31-0.9-0.52-1.57-0.76-2.23c-0.2-0.55-0.47-1.07-0.64-1.63c-0.95-3.24,0.67-5.16,3.91-4.45
			c2.35,0.52,4.63,1.39,6.47,1.96c0.37,1.16,0.4,2.33,0.97,2.76c0.94,0.7,2.05,0.13,2.91-0.66c1.59-1.45,1.61-1.46,3.2-0.07
			c1.8,1.57,3.5,3.25,5.39,4.7c1.12,0.86,2.46,1.51,3.8,1.99c1.16,0.41,1.23,0.95,0.77,1.88c-1.28,2.6-1.27,2.57,1.5,3.57
			c0.55,0.2,1.14,0.6,1.45,1.07c0.59,0.91,0.19,1.51-0.9,1.53c-1.49,0.02-2.97,0.04-4.46-0.02c-0.52-0.02-1.04-0.27-1.56-0.42
			c0.21-0.65,0.32-1.36,0.65-1.95c0.28-0.49,0.85-0.8,1.21-1.25c0.2-0.25,0.21-0.64,0.44-1.41c-2.73,1.08-5.11,2.02-7.45,2.95
			c-2.08-2.28-5.61-1.68-7.15,1.36c1.87-0.57,3.54-1.08,5.54-1.69c-0.54,4.65,3.12,3.52,5.55,4.44c-2,2.76-5.4,1.71-7.71,3.48
			c-0.32-0.74-0.57-1.29-0.92-2.08c-1.44,0.48-2.94,0.97-4.53,1.5c0,0.46,0.03,0.91,0,1.35c-0.12,1.58-0.43,1.83-2.02,1.67
			c-1.25-0.12-1.92,0.59-2.3,1.66c-0.41,1.15-0.92,2.18-2.51,2.19c0.67,2.94-1.09,4.39-3.24,5.62c-1.05,0.6-2.11,1.23-3.04,2
			c-0.36,0.3-0.61,1.11-0.47,1.57c0.34,1.16,0.94,2.23,1.39,3.36c0.43,1.09,0.53,2.17-0.32,3.27c-1.79-0.61-2.84-1.95-3.1-3.69
			c-0.24-1.56-0.9-1.92-2.41-2.07c-5.01-0.47-9.75,0.31-14.36,2.27c-1.04,0.44-1.57,0.95-1.4,2.17c0.27,1.96,0.36,3.93,0.55,5.9
			c0.02,0.26,0.12,0.52,0.2,0.78c0.52,1.68,1.4,3.13,3.2,3.51c1.28,0.27,4.21-1.94,4.76-3.29c0.1-0.24,0.27-0.64,0.4-0.63
			c1.38,0.04,2.76,0.12,4.12,0.29c0.1,0.01,0.24,0.87,0.12,1.25c-0.42,1.28-0.92,2.54-1.44,3.78c-0.47,1.12,0.13,1.54,1.08,1.57
			c1.03,0.03,2.06-0.1,3.09-0.2c0.94-0.09,1.5,0.32,1.59,1.23c0.12,1.2,0.15,2.42,0.22,3.63c0.03,0.58-0.01,1.18,0.08,1.75
			c0.36,2.34,0.76,2.57,2.9,1.74c1.66-0.64,3.24-0.8,4.63,0.64c1.74-1.38,3.41-2.74,5.14-4.02c0.4-0.29,1-0.31,1.52-0.45
			c-0.01,0.57,0.06,1.16-0.04,1.72c-0.12,0.66-0.38,1.3-0.58,1.95c0.17,0.11,0.34,0.21,0.51,0.32c0.42-0.47,0.9-0.91,1.24-1.43
			c0.34-0.52,0.45-1.21,0.84-1.67c0.48-0.57,1.32-0.99,1.79-0.12c0.86,1.6,2.29,1.61,3.72,1.54c1.88-0.09,3.75-0.34,5.78-0.54
			c0.26,3.67,3.19,4.55,5.89,5.7c1.82,0.77,3.67,1.5,5.39,2.46c0.9,0.5,1.69,1.35,2.29,2.22c0.97,1.4,0.54,2.32-1.08,2.81
			c-0.62,0.19-1.24,0.39-1.93,0.61c0.48,1.07,1.12,1.16,1.91,0.71c0.39-0.22,0.73-0.57,1.14-0.7c0.49-0.16,1.04-0.14,1.57-0.2
			c-0.08,0.6-0.1,1.22-0.26,1.8c-0.07,0.26-0.42,0.45-0.64,0.67c-0.04,0.09-0.08,0.17-0.11,0.26c0.09-0.03,0.19-0.06,0.28-0.09
			c3.86-1.74,7.58-1,11.15,0.83c2.6,1.33,5.09,2.85,7.62,4.29c-1.21,2.53-2.46,4.91-3.49,7.38c-1.71,4.1-3.29,8.26-4.89,12.42
			c-0.31,0.81-0.7,1.18-1.64,1.2c-2.94,0.06-5.3,1.36-6.96,3.77c-1.04,1.51-1.84,3.19-2.81,4.75c-0.96,1.57-1.84,3.22-3.02,4.61
			c-1.99,2.34-2.77,2.4-5.42,1.05c-0.1-0.03-0.19-0.06-0.29-0.09c0.04,0.09,0.07,0.18,0.11,0.27c0.98,2.67,0.49,3.94-2.21,5.07
			c-1.86,0.78-3.82,1.33-5.72,1.99c-0.46,0.16-0.91,0.37-1.36,0.55c1.19,2.42,1.03,3.09-1.07,4.84c-0.17,0.14-0.35,0.29-0.52,0.43
			c-1.67,1.31-1.67,1.3,0.13,2.38c0.81,0.49,0.88,1.14,0.18,1.74c-0.68,0.58-1.47,1.04-2.2,1.56c-0.89,0.64-1.75,1.3-1.47,2.62
			c0.29,1.38,0.95,2.43,2.37,2.83c0.64,0.18,1.31,0.24,2.4,0.43c-1.35,0.56-2.38,1-3.41,1.43
			C162.82,345.81,161.92,345.81,161.02,345.81z"/>
		<linearGradient id="SVGID_2_" gradientUnits="userSpaceOnUse" x1="347.3016" y1="331.4365" x2="353.1834" y2="-15.5893">
			<stop  offset="0" style="stop-color:#6DC0C5"/>
			<stop  offset="0.1468" style="stop-color:#81C6CB"/>
			<stop  offset="0.4281" style="stop-color:#ACD7DB"/>
			<stop  offset="0.8119" style="stop-color:#E5F2F3"/>
			<stop  offset="1" style="stop-color:#FFFFFF"/>
		</linearGradient>
		<path class="st1" d="M250.17,213.17c1.61-0.77,3.22-1.54,4.84-2.3c0.49-0.23,1-0.47,1.52-0.55c1.27-0.18,1.63-0.9,1.5-2.07
			c-0.12-1.14,0.17-2.07,1.46-2.35c1.23-0.27,1.64,0.04,1.74,1.33c0.16,2.19,0.18,2.27,2.38,2.21c1.48-0.04,2.94-0.33,4.42-0.45
			c1.07-0.08,2.21-0.28,3.2-0.01c1.12,0.31,1.48-0.13,1.79-0.98c0.09-0.25,0.18-0.51,0.26-0.77c0.69-2.05,0.69-2.05,2.77-2.1
			c1.46-0.04,1.5-0.11,1.21-1.98c2.16,0,4.31,0,6.47,0c-0.18-1.61-1.22-2.37-2.97-2.08c-1.19,0.2-2.35,0.6-3.52,0.91
			c-0.48,0.13-0.95,0.25-1.47,0.39c-0.23-0.36-0.46-0.68-0.66-1.02c-1.48-2.5-1.35-3.31,1.3-4.19c0.79-0.26,1.51-0.78,2.22-1.25
			c0.2-0.14,0.34-0.52,0.32-0.78c-0.01-0.13-0.42-0.36-0.65-0.34c-1.27,0.06-2.58-0.33-3.37,1.38c-0.74,1.58-2.48,2.09-4.13,2.54
			c-0.57,0.15-1.64-0.03-1.41,0.99c0.14,0.61,0.83,1.11,1.31,1.62c0.17,0.18,0.46,0.25,0.8,0.42c-1.7,2.63-3.24,5.25-6.57,6.07
			c-1.22,0.3-1.97-0.09-2.36-1.14c-0.4-1.08-0.62-2.24-1.01-3.73c-0.62,0.41-1.3,0.69-1.75,1.18c-1.55,1.68-2.7,1.7-4.03-0.15
			c-0.49-0.68-0.86-1.48-1.1-2.29c-0.55-1.86-0.1-2.57,1.71-3.17c4.16-1.38,7.7-3.64,10.42-7.14c0.38-0.49,1.01-0.89,1.61-1.09
			c4.7-1.55,9.55-1.93,14.4-1.16c5.62,0.9,11.19,2.13,16.91,3.25c-1.27,2.16-4.01,2.73-8.04,2c-0.05,1.79,0.84,2.64,2.53,2.22
			c1.65-0.41,3.24-1.1,4.89-1.53c1.15-0.3,2.36-0.36,3.76-0.57c-0.07-0.55-0.18-1.28-0.26-2.01c-0.15-1.36,0.71-2.22,2.04-1.92
			c0.31,0.07,0.65,0.58,0.74,0.94c0.13,0.5,0.03,1.05,0.03,1.86c9-2.3,18.03-3.57,27.43-2.01c-0.4-1.52-2.41-1.71-1.62-3.1
			c0.83-0.75,1.71-1.45,2.48-2.25c0.8-0.84,1.81-1.36,2.75-0.75c0.94,0.61,2.57,0.98,1.92,2.85c-0.24,0.7-0.02,1.54-0.21,2.27
			c-0.37,1.39-0.87,2.75-1.33,4.16c0.69-0.31,1.63-0.69,2.54-1.13c0.93-0.45,1.78-1.12,2.75-1.41c0.99-0.29,2.09-0.23,3.15-0.32
			c-0.02-1.33-0.55-1.82-1.94-1.59c-1.01,0.17-2.02,0.39-2.98,0.58c-0.13-0.82-0.35-1.59-0.32-2.35c0.02-0.55,0.36-1.1,0.56-1.64
			c0.33,0.35,0.65,0.7,0.98,1.04c0.29,0.3,0.64,0.84,0.9,0.8c0.39-0.05,0.79-0.46,1.06-0.82c0.23-0.31,0.16-0.87,0.42-1.11
			c0.32-0.3,0.94-0.64,1.25-0.52c2.19,0.89,4.55,1.58,5.84,3.83c1.23-0.74,1.38-1.37,0.4-2.18c-0.85-0.71-1.85-1.24-3.01-2
			c2.81-0.73,5.46-1.45,8.12-2.1c7.67-1.89,15.45-3.03,23.37-2.79c2.96,0.09,5.91,0.46,8.87,0.74c0.34,0.03,0.93,0.3,0.94,0.48
			c0.03,0.38-0.2,0.82-0.44,1.16c-0.24,0.34-0.61,0.59-1.12,1.06c0.64,0.25,1.03,0.43,1.43,0.55c3.18,0.94,6.4,0.63,9.64,0.42
			c2.82-0.18,5.64-0.16,8.47-0.21c0.21,0,0.42,0.1,0.65,0.16c0,0.45-0.03,0.85,0.01,1.25c0.17,1.83,0.41,1.9,2.2,1.55
			c1.35-0.27,2.76-0.24,4.15-0.32c1.39-0.08,2.78-0.12,4.17-0.2c0.26-0.02,0.52-0.14,0.77-0.23c1.31-0.47,2.81-2.05,2.34-2.58
			c-0.63-0.72-1.74-1.02-2.67-1.45c-0.27-0.12-0.62-0.08-1.06-0.12c0.62-1.09,1.58-1.36,2.61-1.28c2.28,0.18,4.55,0.44,7.09,0.69
			c-0.44,2.14-2.68,0.73-3.68,2.18c2.78,0.79,5.4,1.78,8.1,2.25c5.62,0.97,11.3,1.61,16.94,2.49c2.88,0.45,5.73,1.11,8.6,1.64
			c0.37,0.07,0.96,0.06,1.16-0.17c1.15-1.3,2.67-1.55,4.2-1.4c2.63,0.26,5.24,0.74,7.82,1.13c0.67,5.08,0.59,5.4-1.7,5.97
			c0.52,0.58,0.99,1.09,1.52,1.69c-5.79,1.1-11.14,4.27-17.32,3.55c-0.77-0.09-1.1,0.26-1.44,0.88c-2.45,4.49-5.78,8.24-9.7,11.48
			c-0.24,0.2-0.49,0.37-1.05,0.79c0.15-1.32,0.37-2.35,0.35-3.37c-0.02-1-0.33-1.99-0.45-2.99c-0.07-0.61-0.29-1.46,0.02-1.81
			c0.95-1.1,2.02-2.14,3.22-2.95c1.14-0.77,2.51-1.19,3.76-1.82c0.53-0.27,1-0.66,1.37-1.29c-0.77,0.09-1.54,0.22-2.32,0.26
			c-1.29,0.08-1.08-0.9-1.12-1.88c-0.54,0.28-1.01,0.49-1.45,0.75c-0.93,0.55-1.86,1.1-2.76,1.69c-2.11,1.4-4,2.23-6.9,1.49
			c-5.61-1.42-10.8,0.74-15.63,3.59c-0.91,0.54-1.74,1.21-2.8,1.95c3.2,1.39,6.42,0.89,9.57,1.46c0,3.18,0,6.34,0,9.51
			c-1.39,0.04-1.99-0.45-2.05-1.89c-0.05-1.12,0.11-2.24,0.15-3.36c0.02-0.48,0-0.95,0-1.2c-1.04,1.56-1.9,3.54-3.36,4.86
			c-2.11,1.9-4.6,3.41-7.04,4.92c-1.91,1.18-3.95,2.16-5.97,3.14c-0.92,0.45-0.99,1-0.62,1.83c0.75,1.69,1.45,3.41,1.01,5.48
			c-0.99,0.37-2.06,0.76-3.14,1.16c-0.13-0.07-0.27-0.14-0.4-0.21c1.02-2.01,0.15-3.39-1.07-4.8c-0.6-0.7-0.75-1.79-1.2-2.94
			c-0.58,0.27-1.19,0.55-1.81,0.82c-0.59,0.26-1.18,0.51-1.78,0.77c-0.1-0.09-0.19-0.17-0.29-0.26c0.19-0.62,0.39-1.25,0.58-1.88
			c-1.26-0.1-4.28,1.52-4.47,2.52c-0.06,0.32,0.44,0.99,0.81,1.11c0.88,0.29,1.84,0.34,2.77,0.52c0.55,0.11,1.09,0.29,1.65,0.44
			c-0.46,1.27-0.46,1.27-2.82,2.27c0.61,1.78,1.54,3.5,1.76,5.3c0.44,3.55-1.48,6.19-4.1,8.34c-2.61,2.14-5.67,3.26-9.01,3.63
			c-0.26,0.03-0.52,0.06-0.56,0.07c-0.15,1.42-0.16,2.75-0.51,3.98c-0.12,0.43-1.09,0.63-1.74,0.97c-1.03-2.03,0.59-3.69,0.35-5.84
			c-0.74,0.39-1.38,0.63-1.89,1.03c-0.62,0.5-1.19,1.1-1.65,1.75c-0.19,0.26-0.2,0.87-0.01,1.13c0.74,1.01,1.67,1.89,2.37,2.93
			c0.78,1.17,1.61,2.4,2,3.72c0.6,2.04,0.04,3-1.86,4.26c-1.6,1.07-3.26,1.35-4.9,0.16c-0.98-0.71-1.85-1.57-2.77-2.36
			c-0.5-0.43-1.01-0.87-1.81-1.56c-0.44,1.28-0.8,2.34-1.16,3.39c-1.26-0.49-1.65-1.13-1.93-3.57c-0.17-1.46-0.18-2.95-0.29-4.83
			c-0.78,0.46-1.41,0.78-1.98,1.18c-0.58,0.41-1.1,0.9-1.79,1.26c0.04-3.5-2.61-5.71-3.6-8.62c-0.07-0.19-0.78-0.29-1.15-0.22
			c-2.64,0.46-4.86,1.81-6.95,3.42c-1.92,1.48-3.9,2.89-5.8,4.4c-0.34,0.27-0.51,0.87-0.57,1.34c-0.22,1.69-0.23,3.42-0.58,5.08
			c-0.42,1.96-1.48,3.53-3.23,4.1c-1.12-2.42-2.03-4.82-3.29-7.02c-1.65-2.87-2.84-5.81-2.77-9.24c-2.13-0.25-3.34-1.69-4.51-3.2
			c-0.33-0.43-0.67-0.84-1.02-1.26c-1.49-1.83-1.45-1.66-3.7-1.11c-1.85,0.45-3.82,0.61-5.72,0.55c-1.65-0.05-3.16-0.78-3.73-2.69
			c-4.4,1.42-7.14-1.01-9.55-4.08c-1.21,0.93-1.45,1.81-0.69,2.94c0.57,0.85,1.32,1.59,2,2.37c0.53,0.61,1.12,1.17,1.61,1.82
			c0.82,1.1,1.33,1.23,2.47,0.44c0.37-0.26,0.68-0.6,1.04-0.86c0.86-0.61,1.64-0.95,2.59,0.05c0.63,0.66,1.6,0.98,2.39,1.49
			c0.85,0.55,1.14,1.24,0.77,2.29c-1.05,2.94-3.1,4.98-5.83,6.25c-2.76,1.29-5.66,2.29-8.5,3.43c-1.08,0.44-2.2,0.82-3.22,1.38
			c-0.86,0.48-1.59,0.31-1.99-0.39c-0.63-1.1-1.02-2.34-1.52-3.51c-0.27-0.63-0.54-1.27-0.88-1.87c-1.11-1.94-2.28-3.84-3.38-5.79
			c-0.95-1.68-1.7-3.48-2.81-5.05c-0.68-0.97-1.86-1.59-2.81-2.37c-0.14,0.1-0.27,0.19-0.41,0.29c0.11,0.43,0.2,0.87,0.34,1.29
			c1.62,4.72,4.26,8.91,6.86,13.12c1.35,2.18,2.6,4.42,3.98,6.58c0.25,0.4,0.91,0.83,1.33,0.78c1.37-0.16,2.73-0.47,4.06-0.84
			c1.46-0.4,2.88-0.92,4.32-1.39c0.13,0.1,0.26,0.21,0.39,0.31c-0.31,1.23-0.54,2.48-0.94,3.67c-0.98,2.88-2.86,5.17-5.01,7.26
			c-2.65,2.57-5.28,5.15-7.91,7.73c-1.14,1.12-1.32,2.29-0.76,3.88c1.18,3.35,1.6,6.83,0.67,10.34c-0.73,2.76-2.36,4.81-5,6.01
			c-1.31,0.59-1.64,1.17-0.98,2.49c0.72,1.43,0.41,2.5-0.49,3.68c-2.19,2.84-4.1,5.94-6.52,8.57c-3.28,3.57-7.72,4.58-12.44,4.42
			c-0.32-0.01-0.78-0.4-0.92-0.72c-1.73-3.95-3.36-7.93-5.11-11.87c-1.43-3.21-2.92-6.39-3.07-9.99c-0.08-2.08,0.44-4,1.52-5.79
			c0.23-0.38,0.45-0.98,0.32-1.35c-1.15-3.06-2.35-6.11-3.61-9.13c-0.27-0.64-0.75-1.28-1.3-1.71c-1.36-1.07-1.22-2.36-0.78-3.75
			c0.11-0.34,0.21-0.7,0.37-1.01c0.86-1.65,1.04-3.16-0.93-4.36c-0.71,0.34-1.52,0.8-2.39,1.11c-0.76,0.28-1.3,0.25-1.72-0.8
			c-0.36-0.9-1.4-1.54-2.17-2.26c-0.12-0.11-0.46-0.14-0.6-0.04c-2.29,1.58-5,1.28-7.54,1.72c-1.93,0.34-3.82,0.86-5.74,1.25
			c-0.41,0.08-0.97,0.1-1.27-0.12c-1.43-1.05-2.9-2.08-4.16-3.33c-1.4-1.38-2.57-3-3.87-4.49c-0.26-0.3-0.62-0.6-0.98-0.7
			c-1.8-0.48-1.8-1.72-1.58-3.22c0.26-1.79,0.48-3.52,1.59-5.08c0.31-0.44,0.07-1.54-0.27-2.13c-1.01-1.74-0.6-3.28,0.19-4.95
			c1.38-2.9,3.27-5.24,6.27-6.61c0.39-0.18,0.65-0.79,0.83-1.26c0.59-1.49,1.1-3.02,1.67-4.52c0.04-0.12,0.3-0.18,0.46-0.23
			c4.6-1.41,9.16-2.93,13.8-4.16c3.07-0.81,6.26-0.77,9.3,0.37c0.55,0.21,1.21,0.72,1.35,1.22c0.1,0.36-0.59,0.94-0.94,1.41
			c-0.13,0.17-0.28,0.33-0.63,0.73c1.28,0.68,2.42,1.35,3.61,1.91c1.83,0.85,3.7,1.63,5.57,2.4c0.27,0.11,0.75,0.13,0.94-0.04
			c2.62-2.25,5.69-2.22,8.83-1.75c2.31,0.35,4.6,0.81,6.9,1.2c3.89,0.66,6.79-2.51,5.87-6.51c-3.47,0.59-6.87,0.14-10.21-0.91
			c-1.03-0.32-1.61-0.77-1.45-1.97c0.12-0.87,0.02-1.78,0.02-3.01c-1.28,0.43-2.33,0.79-3.69,1.24c0.67,0.97,1.27,1.84,1.8,2.6
			c-0.84,0.64-1.51,1.11-2.14,1.63c-0.76,0.62-1.33,0.57-1.85-0.32c-1.01-1.7-1.95-3.46-3.15-5.02c-1.96-2.54-4.42-4.47-7.69-5.13
			c-0.06-0.04-0.12-0.09-0.18-0.13c0.01,0.1,0.02,0.19,0.02,0.29c1.2,1.18,2.32,2.43,3.61,3.5c0.81,0.67,1.86,1.07,2.74,1.55
			c-0.55,0.88-1.07,1.73-1.63,2.63c-1.21-1.83-3.32-2.71-5.3-3.79c-1.28-0.7-2.4-1.71-3.66-2.46c-0.47-0.28-1.17-0.39-1.72-0.31
			c-3.42,0.51-5.94,2.63-8.44,4.79c-1.26,1.09-2.49,2.21-3.84,3.19c-3.05,2.21-5.97,2.19-9,0.12c-0.62-0.43-0.72-0.78-0.55-1.54
			c0.32-1.42,0.53-2.9,0.53-4.36c0-1,0.31-1.45,1.22-1.52c1.39-0.1,2.78-0.13,4.17-0.2c0.99-0.05,2.03,0.07,2.94-0.23
			c0.72-0.24,1.58-0.91,1.77-1.57c0.17-0.58-0.34-1.58-0.86-2.07c-0.72-0.68-1.72-1.06-2.41-1.46c2.26-1.27,4.65-2.61,7.03-3.94
			L250.17,213.17z"/>
		<linearGradient id="SVGID_3_" gradientUnits="userSpaceOnUse" x1="188.7452" y1="328.7491" x2="194.627" y2="-18.2766">
			<stop  offset="0" style="stop-color:#6DC0C5"/>
			<stop  offset="0.1468" style="stop-color:#81C6CB"/>
			<stop  offset="0.4281" style="stop-color:#ACD7DB"/>
			<stop  offset="0.8119" style="stop-color:#E5F2F3"/>
			<stop  offset="1" style="stop-color:#FFFFFF"/>
		</linearGradient>
		<path class="st2" d="M180.83,188.22c-0.14-0.34-0.3-0.99-0.41-0.98c-0.54,0.05-1.11,0.2-1.6,0.44c-0.62,0.31-1.18,0.74-1.86,1.18
			c-1.45-5.59-2.9-6.71-8.39-6.83c-2.38-0.05-4.77-0.01-7.14-0.24c-1.32-0.13-2.6-0.7-3.87-1.31c3.77-0.94,6.63-3.22,9.47-5.48
			c3.97-3.15,8.28-4.62,13.33-3.21c1.12,0.31,1.76-0.23,1.93-1.44c0.08-0.61,0.07-1.23,0.11-2.29c0.72,0.52,1.15,0.92,1.65,1.16
			c0.38,0.18,1.1,0.36,1.27,0.17c2.29-2.53,5.36-3.4,8.52-3.97c3.26-0.59,6.54-0.63,9.73,0.49c0.58,0.2,1.11,0.52,1.87,0.88
			c-1.92,0.38-3.6,0.71-5.28,1.04c0,0.11,0,0.23,0,0.34c1.2,0,2.43,0.18,3.58-0.04c1.76-0.34,3.46-0.97,5.18-1.46
			c0.3-0.09,0.61-0.16,0.92-0.21c2.59-0.4,2.68-0.24,3.77,2.11c0.76,1.65,1.77,3.19,2.81,4.69c0.59,0.85,1.46,0.87,2.34,0.16
			c0.8-0.64,1.63-1.39,2.57-1.7c0.95-0.31,2.07-0.25,3.1-0.16c0.68,0.06,0.86,0.7,0.37,1.21c-0.8,0.83-1.67,1.61-2.56,2.35
			c-1.1,0.92-2.28,1.73-3.35,2.67c-0.57,0.51-0.56,1.14-0.22,1.93c0.3,0.7,0.2,1.62,0.13,2.43c-0.06,0.71-0.46,1.39-0.47,2.09
			c-0.02,1.11-0.61,1.39-1.54,1.39c-0.09,0-0.18,0-0.27-0.01c-2.86-0.1-2.86-0.05-1.9,2.69c0.18,0.5-0.15,1.18-0.25,1.78
			c-0.58-0.3-1.38-0.44-1.7-0.91c-1-1.47-1.18-1.61-2.81-0.73c0.71,0.55,1.32,1.03,2.22,1.74c-1.73,0.7-3.21,1.42-4.77,1.91
			c-3.25,1.03-6.58,1.83-9.81,2.93c-2.94,1-5.16,2.88-6.07,6.03c-0.09,0.32-0.68,0.7-1.04,0.71c-2.53,0.07-4.77-0.83-6.74-2.36
			c-2.65-2.05-4.39-4.73-5.22-7.98c-0.59-2.28-0.17-2.83,2.24-3.06c0.08,0.1,0.17,0.2,0.25,0.3c0.01,0.4-0.04,0.81,0.05,1.2
			c0.05,0.25,0.26,0.56,0.47,0.65c0.17,0.07,0.59-0.11,0.67-0.28c0.1-0.21,0.04-0.59-0.11-0.78c-0.27-0.34-0.65-0.6-0.98-0.89
			C180.96,188.44,180.9,188.33,180.83,188.22z"/>
		<linearGradient id="SVGID_4_" gradientUnits="userSpaceOnUse" x1="412.6774" y1="332.5445" x2="418.5592" y2="-14.4812">
			<stop  offset="0" style="stop-color:#6DC0C5"/>
			<stop  offset="0.1468" style="stop-color:#81C6CB"/>
			<stop  offset="0.4281" style="stop-color:#ACD7DB"/>
			<stop  offset="0.8119" style="stop-color:#E5F2F3"/>
			<stop  offset="1" style="stop-color:#FFFFFF"/>
		</linearGradient>
		<path class="st3" d="M424.44,290.48c3.98,5.95,9.19,11.07,11.92,17.87c1.8,4.49,1.59,8.8-0.86,13.07
			c-1.53,2.67-3.77,3.81-6.62,3.8c-2.17,0-4.33-0.42-6.72-0.68c0.86-2.52-0.51-3.52-2.1-4.51c-0.54-0.34-0.79-1.13-1.37-2.01
			c-0.22,0.17-0.83,0.47-1.23,0.95c-1.3,1.55-1.83,1.53-2.73-0.21c-1.3-2.49-3.33-3.71-5.99-2.95c-3.14,0.9-6.14,2.24-9.2,3.41
			c-2.31,0.88-4.59,1.95-7.15,1.48c-0.69-0.13-1.32-0.6-1.98-0.92c0.39-0.65,0.69-1.38,1.19-1.93c0.51-0.56,1.12-0.98,0.45-1.79
			c-2.12-2.53-2.75-5.61-3.26-8.73c-0.44-2.66-0.41-2.66,2.03-3.87c2.82-1.4,5.67-2.74,8.43-4.24c1.97-1.07,3.47-2.69,4.59-4.66
			c0.63-1.11,1.5-1.26,2.51-0.47c1.57,1.23,2.55,0.98,3.07-1.04c0.3-1.15,0.8-1.33,1.85-1.31c1.66,0.03,3.31-0.2,4.97-0.2
			c0.5,0,1.29,0.29,1.42,0.65c0.18,0.46,0.01,1.28-0.32,1.66c-0.55,0.64-0.57,1.15,0.04,1.56c1.56,1.05,3.15,2.07,4.8,2.95
			c0.25,0.13,1.18-0.41,1.33-0.81c0.33-0.89,0.44-1.88,0.5-2.84c0.08-1.38,0.02-2.77,0.02-4.15
			C424.17,290.53,424.3,290.5,424.44,290.48z"/>
		<linearGradient id="SVGID_5_" gradientUnits="userSpaceOnUse" x1="421.5595" y1="332.6951" x2="427.4413" y2="-14.3306">
			<stop  offset="0" style="stop-color:#6DC0C5"/>
			<stop  offset="0.1468" style="stop-color:#81C6CB"/>
			<stop  offset="0.4281" style="stop-color:#ACD7DB"/>
			<stop  offset="0.8119" style="stop-color:#E5F2F3"/>
			<stop  offset="1" style="stop-color:#FFFFFF"/>
		</linearGradient>
		<path class="st4" d="M420.09,286.27c0.61-1.33,0.55-2.05-1.03-2.83c-1.77-0.87-3.72-1.38-5.62-2.05
			c-0.72-1.25-1.56-2.72-2.57-4.47c3.53,0.71,7.04,1.33,10.5,2.13c2.92,0.67,5.6,1.96,7.95,3.86c2.3,1.86,3.8,4.24,4.6,7.05
			c-0.11,0.14-0.21,0.28-0.32,0.42c-0.85-0.55-1.73-1.06-2.53-1.68c-0.85-0.66-1.54-1.53-2.42-2.12c-1.2-0.81-1.91-0.54-2.63,0.73
			c-1.15,2.07-2.03,2.09-3.64,0.34C421.81,287.04,420.89,286.74,420.09,286.27z"/>
		<linearGradient id="SVGID_6_" gradientUnits="userSpaceOnUse" x1="388.2516" y1="332.1305" x2="394.1334" y2="-14.8952">
			<stop  offset="0" style="stop-color:#6DC0C5"/>
			<stop  offset="0.1468" style="stop-color:#81C6CB"/>
			<stop  offset="0.4281" style="stop-color:#ACD7DB"/>
			<stop  offset="0.8119" style="stop-color:#E5F2F3"/>
			<stop  offset="1" style="stop-color:#FFFFFF"/>
		</linearGradient>
		<path class="st5" d="M394.68,270.78c-0.91,0.89-0.49,2.08,0.06,3.25c0.49,1.02,0.6,1.76-0.55,2.55c-1.54,1.06-1.71,2.85-1.7,4.68
			c-2.38,0.37-4.63,0.3-6.71-0.89c-1.72-0.98-2.84-3.69-2.3-5.51c0.11-0.35,0.65-0.65,1.06-0.83c1.44-0.61,2.95-1.07,4.36-1.73
			c1.51-0.7,2.6-1.87,3.31-3.4c0.17-0.37,0.64-0.61,0.98-0.9c0.24,0.37,0.5,0.72,0.71,1.1
			C394.16,269.59,394.37,270.11,394.68,270.78z"/>
		<linearGradient id="SVGID_7_" gradientUnits="userSpaceOnUse" x1="305.5745" y1="330.7292" x2="311.4563" y2="-16.2965">
			<stop  offset="0" style="stop-color:#6DC0C5"/>
			<stop  offset="0.1468" style="stop-color:#81C6CB"/>
			<stop  offset="0.4281" style="stop-color:#ACD7DB"/>
			<stop  offset="0.8119" style="stop-color:#E5F2F3"/>
			<stop  offset="1" style="stop-color:#FFFFFF"/>
		</linearGradient>
		<path class="st6" d="M310.17,292.23c0.13,4.4-0.41,8.33-2.04,12.05c-0.75,1.71-1.77,3.26-3.7,3.86c-1.61,0.5-2.07,0.21-2.12-1.47
			c-0.04-1.48,0.09-2.96,0.1-4.44c0.01-0.84,0.12-1.76-0.15-2.52c-0.36-1,0.05-1.43,0.73-1.99c1.59-1.32,3.07-2.76,4.67-4.06
			C308.32,293.12,309.18,292.79,310.17,292.23z"/>
		<linearGradient id="SVGID_8_" gradientUnits="userSpaceOnUse" x1="417.3719" y1="332.6241" x2="423.2537" y2="-14.4016">
			<stop  offset="0" style="stop-color:#6DC0C5"/>
			<stop  offset="0.1468" style="stop-color:#81C6CB"/>
			<stop  offset="0.4281" style="stop-color:#ACD7DB"/>
			<stop  offset="0.8119" style="stop-color:#E5F2F3"/>
			<stop  offset="1" style="stop-color:#FFFFFF"/>
		</linearGradient>
		<path class="st7" d="M409.69,237.56c-0.35-0.66-0.73-1.36-1.25-2.34c1.08-0.65,2.15-1.48,3.35-1.99c1.77-0.76,3.65-1.26,5.46-1.93
			c3.94-1.45,5.02-3.34,4.46-7.44c-0.06-0.44,0.23-1.11,0.59-1.4c1.95-1.55,4.92-1.47,7.51,0.12c-0.32,1.12-1.27,1.27-2.21,1.35
			c-1.03,0.09-2.07,0.05-3.1,0.13c-0.47,0.04-0.92,0.24-1.61,0.43c2.03,2.56-0.15,4.94,0.01,7.39c0.02,0.27-0.66,0.68-1.08,0.85
			c-1.96,0.79-3.95,1.5-5.91,2.28C413.87,235.83,411.84,236.68,409.69,237.56z"/>
		<linearGradient id="SVGID_9_" gradientUnits="userSpaceOnUse" x1="377.5144" y1="331.9485" x2="383.3962" y2="-15.0772">
			<stop  offset="0" style="stop-color:#6DC0C5"/>
			<stop  offset="0.1468" style="stop-color:#81C6CB"/>
			<stop  offset="0.4281" style="stop-color:#ACD7DB"/>
			<stop  offset="0.8119" style="stop-color:#E5F2F3"/>
			<stop  offset="1" style="stop-color:#FFFFFF"/>
		</linearGradient>
		<path class="st8" d="M366.57,270.82c1.37-0.29,2.72,0.05,3.85,0.88c1.4,1.03,2.62,2.31,3.99,3.4c1.67,1.34,3.36,2.66,5.14,3.85
			c0.92,0.62,0.67,1.28,0.39,1.97c-1.05,2.66-0.43,3.76,2.47,4.14c1.87,0.24,3.76,0.28,5.62,0.55c0.79,0.11,1.53,0.56,2.23,1.05
			c-3.61,0.96-7.01,0.59-10.19-1.32c-2.87-1.72-4.96-4.24-7.05-6.79C370.92,275.98,368.78,273.45,366.57,270.82z"/>
		<linearGradient id="SVGID_10_" gradientUnits="userSpaceOnUse" x1="242.5406" y1="329.6609" x2="248.4224" y2="-17.3649">
			<stop  offset="0" style="stop-color:#6DC0C5"/>
			<stop  offset="0.1468" style="stop-color:#81C6CB"/>
			<stop  offset="0.4281" style="stop-color:#ACD7DB"/>
			<stop  offset="0.8119" style="stop-color:#E5F2F3"/>
			<stop  offset="1" style="stop-color:#FFFFFF"/>
		</linearGradient>
		<path class="st9" d="M250.18,213.16c-1.43,0.26-2.84,0.66-4.28,0.75c-1,0.06-2.05-0.22-3.03-0.52c-1.29-0.4-1.47-1.49-0.48-2.44
			c0.38-0.36,0.85-0.64,1.58-1.17c-1.16-0.67-2.13-1.25-3.12-1.79c-1.58-0.86-2.05-1.69-1.81-3.43c1.47-0.2,2.96-0.47,4.47-0.58
			c1.1-0.07,1.85,0.32,1.78,1.72c-0.08,1.54,0.96,2.55,2.12,3.4c1.4,1.03,2.62,2.18,2.76,4.07
			C250.17,213.17,250.18,213.16,250.18,213.16z"/>
		<linearGradient id="SVGID_11_" gradientUnits="userSpaceOnUse" x1="319.8867" y1="330.9718" x2="325.7685" y2="-16.0539">
			<stop  offset="0" style="stop-color:#6DC0C5"/>
			<stop  offset="0.1468" style="stop-color:#81C6CB"/>
			<stop  offset="0.4281" style="stop-color:#ACD7DB"/>
			<stop  offset="0.8119" style="stop-color:#E5F2F3"/>
			<stop  offset="1" style="stop-color:#FFFFFF"/>
		</linearGradient>
		<path class="st10" d="M332.99,180.91c-0.7,1.61-1.84,2.09-3.04,2.23c-2.32,0.27-4.67,0.28-6.98,0.58
			c-1.35,0.18-2.73,0.57-3.96,1.15c-1.38,0.65-1.41,1.52-0.49,2.71c0.24,0.31,0.55,0.91,0.42,1.11c-0.22,0.34-0.75,0.61-1.18,0.65
			c-0.56,0.06-1.17-0.06-1.72-0.23c-1.4-0.43-2.78-0.93-4.28-1.44c1.14-1.73,2.85-2.77,4.68-3.6c3.56-1.62,7.36-2.34,11.22-2.75
			C329.34,181.13,331.04,181.05,332.99,180.91z"/>
		<linearGradient id="SVGID_12_" gradientUnits="userSpaceOnUse" x1="220.4122" y1="329.2858" x2="226.294" y2="-17.7399">
			<stop  offset="0" style="stop-color:#6DC0C5"/>
			<stop  offset="0.1468" style="stop-color:#81C6CB"/>
			<stop  offset="0.4281" style="stop-color:#ACD7DB"/>
			<stop  offset="0.8119" style="stop-color:#E5F2F3"/>
			<stop  offset="1" style="stop-color:#FFFFFF"/>
		</linearGradient>
		<path class="st11" d="M216.83,195.56c1.28-1.29,2.8-1.24,4.23-1.18c2.45,0.11,4.9,0.37,7.48,0.58c-0.55,1.78-1.95,2.61-3.61,2.91
			C221.93,198.44,219.19,197.8,216.83,195.56z"/>
		<linearGradient id="SVGID_13_" gradientUnits="userSpaceOnUse" x1="459.8558" y1="333.3442" x2="465.7376" y2="-13.6816">
			<stop  offset="0" style="stop-color:#6DC0C5"/>
			<stop  offset="0.1468" style="stop-color:#81C6CB"/>
			<stop  offset="0.4281" style="stop-color:#ACD7DB"/>
			<stop  offset="0.8119" style="stop-color:#E5F2F3"/>
			<stop  offset="1" style="stop-color:#FFFFFF"/>
		</linearGradient>
		<path class="st12" d="M464.33,327.62c-1.24,4.86-4.68,7.5-8.88,6.85C456.91,330.27,460.43,328.88,464.33,327.62z"/>
		<linearGradient id="SVGID_14_" gradientUnits="userSpaceOnUse" x1="134.9542" y1="327.8374" x2="140.836" y2="-19.1884">
			<stop  offset="0" style="stop-color:#6DC0C5"/>
			<stop  offset="0.1468" style="stop-color:#81C6CB"/>
			<stop  offset="0.4281" style="stop-color:#ACD7DB"/>
			<stop  offset="0.8119" style="stop-color:#E5F2F3"/>
			<stop  offset="1" style="stop-color:#FFFFFF"/>
		</linearGradient>
		<path class="st13" d="M127.39,179.15c6.37,2.72,12.95,4.26,20.11,3.81C143.25,185.72,130.24,183.6,127.39,179.15z"/>
		<linearGradient id="SVGID_15_" gradientUnits="userSpaceOnUse" x1="372.9129" y1="331.8705" x2="378.7947" y2="-15.1552">
			<stop  offset="0" style="stop-color:#6DC0C5"/>
			<stop  offset="0.1468" style="stop-color:#81C6CB"/>
			<stop  offset="0.4281" style="stop-color:#ACD7DB"/>
			<stop  offset="0.8119" style="stop-color:#E5F2F3"/>
			<stop  offset="1" style="stop-color:#FFFFFF"/>
		</linearGradient>
		<path class="st14" d="M377.95,275.75c-2.21-0.55-3.6-1.9-4.54-3.69c-1.23-2.33-2.31-4.74-3.45-7.11
			C373.93,266.07,376.87,271.29,377.95,275.75z"/>
		<linearGradient id="SVGID_16_" gradientUnits="userSpaceOnUse" x1="397.847" y1="332.2932" x2="403.7287" y2="-14.7326">
			<stop  offset="0" style="stop-color:#6DC0C5"/>
			<stop  offset="0.1468" style="stop-color:#81C6CB"/>
			<stop  offset="0.4281" style="stop-color:#ACD7DB"/>
			<stop  offset="0.8119" style="stop-color:#E5F2F3"/>
			<stop  offset="1" style="stop-color:#FFFFFF"/>
		</linearGradient>
		<path class="st15" d="M395.84,256.97c1.35-1.2,2.64-2.34,4.02-3.56c0.81,1.47,0.22,2.41-0.38,3.37c-0.24,0.38-0.33,0.86-0.48,1.29
			c0.45,0.15,0.89,0.34,1.36,0.44c0.58,0.13,1.17,0.18,2.02,0.3c-1.9,1.43-3.51,2.65-5.12,3.86c-0.17-0.04-0.34-0.07-0.51-0.11
			C399.47,260.17,397.44,258.69,395.84,256.97z"/>
		<linearGradient id="SVGID_17_" gradientUnits="userSpaceOnUse" x1="235.8165" y1="329.5469" x2="241.6982" y2="-17.4788">
			<stop  offset="0" style="stop-color:#6DC0C5"/>
			<stop  offset="0.1468" style="stop-color:#81C6CB"/>
			<stop  offset="0.4281" style="stop-color:#ACD7DB"/>
			<stop  offset="0.8119" style="stop-color:#E5F2F3"/>
			<stop  offset="1" style="stop-color:#FFFFFF"/>
		</linearGradient>
		<path class="st16" d="M236.56,213c-1.24,0-1.55-0.7-1.47-1.7c0.11-1.29,1.46-2.91,2.73-3.21c0.93-0.22,1.95-0.28,2.53,0.68
			c0.59,0.96-0.05,2.87-1.14,3.4C238.39,212.57,237.45,212.73,236.56,213z"/>
		<linearGradient id="SVGID_18_" gradientUnits="userSpaceOnUse" x1="397.6556" y1="332.2899" x2="403.5374" y2="-14.7358">
			<stop  offset="0" style="stop-color:#6DC0C5"/>
			<stop  offset="0.1468" style="stop-color:#81C6CB"/>
			<stop  offset="0.4281" style="stop-color:#ACD7DB"/>
			<stop  offset="0.8119" style="stop-color:#E5F2F3"/>
			<stop  offset="1" style="stop-color:#FFFFFF"/>
		</linearGradient>
		<path class="st17" d="M399.1,279.39c2.34,2.23,2.4,2.33,2.24,4.15c-0.71-0.45-1.45-0.72-1.9-1.23c-1.02-1.18-2.08-2-3.82-1.15
			c0.17-1.21,0.32-2.23,0.48-3.31c1.73,0,3.49,0,5.36,0C401.22,279.22,400.19,279.25,399.1,279.39z"/>
		<linearGradient id="SVGID_19_" gradientUnits="userSpaceOnUse" x1="466.5182" y1="333.4571" x2="472.4" y2="-13.5686">
			<stop  offset="0" style="stop-color:#6DC0C5"/>
			<stop  offset="0.1468" style="stop-color:#81C6CB"/>
			<stop  offset="0.4281" style="stop-color:#ACD7DB"/>
			<stop  offset="0.8119" style="stop-color:#E5F2F3"/>
			<stop  offset="1" style="stop-color:#FFFFFF"/>
		</linearGradient>
		<path class="st18" d="M466.4,328.46c-0.94-0.97-0.55-2.9-2.48-2.39c1.25-3.13,1.25-3.13-0.06-4.75c0.71-0.73,1.2-0.39,1.68,0.29
			c1.44,1.99,1.45,1.99,4,2.19C468.46,325.4,467.48,326.85,466.4,328.46z"/>
		<linearGradient id="SVGID_20_" gradientUnits="userSpaceOnUse" x1="401.0671" y1="332.3477" x2="406.9489" y2="-14.678">
			<stop  offset="0" style="stop-color:#6DC0C5"/>
			<stop  offset="0.1468" style="stop-color:#81C6CB"/>
			<stop  offset="0.4281" style="stop-color:#ACD7DB"/>
			<stop  offset="0.8119" style="stop-color:#E5F2F3"/>
			<stop  offset="1" style="stop-color:#FFFFFF"/>
		</linearGradient>
		<path class="st19" d="M398.81,267.26c1.54-1.54,3.34-1.95,5.34-1.49c0.78,0.18,1.65,0.43,1.32,1.6c-0.36,1.27-1.31,1.97-2.37,1.59
			C401.7,268.48,400.35,267.88,398.81,267.26z"/>
		<linearGradient id="SVGID_21_" gradientUnits="userSpaceOnUse" x1="119.2755" y1="327.5716" x2="125.1573" y2="-19.4541">
			<stop  offset="0" style="stop-color:#6DC0C5"/>
			<stop  offset="0.1468" style="stop-color:#81C6CB"/>
			<stop  offset="0.4281" style="stop-color:#ACD7DB"/>
			<stop  offset="0.8119" style="stop-color:#E5F2F3"/>
			<stop  offset="1" style="stop-color:#FFFFFF"/>
		</linearGradient>
		<path class="st20" d="M118.2,184.37c-0.07-0.85-0.14-1.7-0.23-2.79c2.15,0,4.12-0.08,6.08,0.05c0.54,0.04,1.45,0.71,1.46,1.11
			c0.03,0.97-0.88,1.12-1.69,0.99c-0.84-0.14-1.65-0.4-2.49-0.56C119.77,182.88,119.4,183.05,118.2,184.37z"/>
		<linearGradient id="SVGID_22_" gradientUnits="userSpaceOnUse" x1="121.4118" y1="327.6078" x2="127.2936" y2="-19.4179">
			<stop  offset="0" style="stop-color:#6DC0C5"/>
			<stop  offset="0.1468" style="stop-color:#81C6CB"/>
			<stop  offset="0.4281" style="stop-color:#ACD7DB"/>
			<stop  offset="0.8119" style="stop-color:#E5F2F3"/>
			<stop  offset="1" style="stop-color:#FFFFFF"/>
		</linearGradient>
		<path class="st21" d="M120.66,186.09c0.56-0.34,1.09-0.91,1.67-0.96c1.18-0.09,2.39,0.01,3.56,0.21c0.42,0.07,1.05,0.66,1.07,1.04
			c0.02,0.64-0.23,1.42-0.65,1.87c-0.21,0.23-1.1-0.04-1.61-0.26C123.45,187.47,122.24,186.85,120.66,186.09z"/>
		<linearGradient id="SVGID_23_" gradientUnits="userSpaceOnUse" x1="147.3194" y1="328.0469" x2="153.2012" y2="-18.9788">
			<stop  offset="0" style="stop-color:#6DC0C5"/>
			<stop  offset="0.1468" style="stop-color:#81C6CB"/>
			<stop  offset="0.4281" style="stop-color:#ACD7DB"/>
			<stop  offset="0.8119" style="stop-color:#E5F2F3"/>
			<stop  offset="1" style="stop-color:#FFFFFF"/>
		</linearGradient>
		<path class="st22" d="M153.66,251.98c-3.18-1.25-6.08-3.3-10.07-2.43c1.1-1.48,2.33-1.67,3.61-1.51
			C149.93,248.36,152.21,249.5,153.66,251.98z"/>
		<linearGradient id="SVGID_24_" gradientUnits="userSpaceOnUse" x1="118.2329" y1="327.554" x2="124.1147" y2="-19.4718">
			<stop  offset="0" style="stop-color:#6DC0C5"/>
			<stop  offset="0.1468" style="stop-color:#81C6CB"/>
			<stop  offset="0.4281" style="stop-color:#ACD7DB"/>
			<stop  offset="0.8119" style="stop-color:#E5F2F3"/>
			<stop  offset="1" style="stop-color:#FFFFFF"/>
		</linearGradient>
		<path class="st23" d="M117.32,178.24c2.8-1.45,6.13-0.57,6.87,1.75C121.36,180.62,118.1,179.82,117.32,178.24z"/>
		<linearGradient id="SVGID_25_" gradientUnits="userSpaceOnUse" x1="158.2643" y1="328.2325" x2="164.1461" y2="-18.7933">
			<stop  offset="0" style="stop-color:#6DC0C5"/>
			<stop  offset="0.1468" style="stop-color:#81C6CB"/>
			<stop  offset="0.4281" style="stop-color:#ACD7DB"/>
			<stop  offset="0.8119" style="stop-color:#E5F2F3"/>
			<stop  offset="1" style="stop-color:#FFFFFF"/>
		</linearGradient>
		<path class="st24" d="M162.87,253.59c-1.46,1.63-3.66,1.31-6.67-0.09C157.56,251.58,161.16,251.62,162.87,253.59z"/>
		<linearGradient id="SVGID_26_" gradientUnits="userSpaceOnUse" x1="429.9498" y1="332.8373" x2="435.8316" y2="-14.1884">
			<stop  offset="0" style="stop-color:#6DC0C5"/>
			<stop  offset="0.1468" style="stop-color:#81C6CB"/>
			<stop  offset="0.4281" style="stop-color:#ACD7DB"/>
			<stop  offset="0.8119" style="stop-color:#E5F2F3"/>
			<stop  offset="1" style="stop-color:#FFFFFF"/>
		</linearGradient>
		<path class="st25" d="M432.47,327.85c-0.61,1.43-1.04,3.13-2.83,3.17c-0.59,0.01-1.22-1.32-2.05-2.3c1.08-0.27,1.82-0.5,2.58-0.63
			C430.9,327.96,431.65,327.93,432.47,327.85z"/>
		<linearGradient id="SVGID_27_" gradientUnits="userSpaceOnUse" x1="346.761" y1="331.4273" x2="352.6428" y2="-15.5984">
			<stop  offset="0" style="stop-color:#6DC0C5"/>
			<stop  offset="0.1468" style="stop-color:#81C6CB"/>
			<stop  offset="0.4281" style="stop-color:#ACD7DB"/>
			<stop  offset="0.8119" style="stop-color:#E5F2F3"/>
			<stop  offset="1" style="stop-color:#FFFFFF"/>
		</linearGradient>
		<path class="st26" d="M346.37,267.43c0.6-0.84,0.92-1.72,1.5-1.97c0.68-0.3,1.68,1,1.42,2c-0.19,0.75-0.86,1.39-1.31,2.07
			C347.48,268.88,346.98,268.23,346.37,267.43z"/>
		<linearGradient id="SVGID_28_" gradientUnits="userSpaceOnUse" x1="129.1145" y1="327.7384" x2="134.9963" y2="-19.2873">
			<stop  offset="0" style="stop-color:#6DC0C5"/>
			<stop  offset="0.1468" style="stop-color:#81C6CB"/>
			<stop  offset="0.4281" style="stop-color:#ACD7DB"/>
			<stop  offset="0.8119" style="stop-color:#E5F2F3"/>
			<stop  offset="1" style="stop-color:#FFFFFF"/>
		</linearGradient>
		<path class="st27" d="M129.14,186.43c1.08-1.98,2.85-2.4,4.75-1.19C133.34,186.62,132.06,186.96,129.14,186.43z"/>
		<linearGradient id="SVGID_29_" gradientUnits="userSpaceOnUse" x1="402.9822" y1="332.3802" x2="408.864" y2="-14.6455">
			<stop  offset="0" style="stop-color:#6DC0C5"/>
			<stop  offset="0.1468" style="stop-color:#81C6CB"/>
			<stop  offset="0.4281" style="stop-color:#ACD7DB"/>
			<stop  offset="0.8119" style="stop-color:#E5F2F3"/>
			<stop  offset="1" style="stop-color:#FFFFFF"/>
		</linearGradient>
		<path class="st28" d="M405.9,287.77c-1.56,0.75-2.84,1.37-4.26,2.04c-0.29-1.36,0.21-2.1,1.06-2.59
			C403.66,286.66,404.63,286.67,405.9,287.77z"/>
		<linearGradient id="SVGID_30_" gradientUnits="userSpaceOnUse" x1="106.604" y1="327.3568" x2="112.4858" y2="-19.6689">
			<stop  offset="0" style="stop-color:#6DC0C5"/>
			<stop  offset="0.1468" style="stop-color:#81C6CB"/>
			<stop  offset="0.4281" style="stop-color:#ACD7DB"/>
			<stop  offset="0.8119" style="stop-color:#E5F2F3"/>
			<stop  offset="1" style="stop-color:#FFFFFF"/>
		</linearGradient>
		<path class="st29" d="M107.03,179.82c1.27-0.59,2.55-1.18,3.89-1.8c0.49,2.22,0.42,2.32-1.33,2.33c-0.79,0-1.59,0-2.38,0
			C107.15,180.17,107.09,180,107.03,179.82z"/>
		<linearGradient id="SVGID_31_" gradientUnits="userSpaceOnUse" x1="399.6784" y1="332.3242" x2="405.5602" y2="-14.7015">
			<stop  offset="0" style="stop-color:#6DC0C5"/>
			<stop  offset="0.1468" style="stop-color:#81C6CB"/>
			<stop  offset="0.4281" style="stop-color:#ACD7DB"/>
			<stop  offset="0.8119" style="stop-color:#E5F2F3"/>
			<stop  offset="1" style="stop-color:#FFFFFF"/>
		</linearGradient>
		<path class="st30" d="M397.81,275.89c1.86-0.33,3.71-0.67,5.66-1.02c-0.36,1.76-1.63,2.04-5.61,1.45
			C397.85,276.18,397.83,276.04,397.81,275.89z"/>
		<linearGradient id="SVGID_32_" gradientUnits="userSpaceOnUse" x1="263.9879" y1="330.0244" x2="269.8696" y2="-17.0013">
			<stop  offset="0" style="stop-color:#6DC0C5"/>
			<stop  offset="0.1468" style="stop-color:#81C6CB"/>
			<stop  offset="0.4281" style="stop-color:#ACD7DB"/>
			<stop  offset="0.8119" style="stop-color:#E5F2F3"/>
			<stop  offset="1" style="stop-color:#FFFFFF"/>
		</linearGradient>
		<path class="st31" d="M267.33,230.6c-2.24,0.43-3.39-0.21-3.28-1.82C266.26,228.61,267.11,229.08,267.33,230.6z"/>
		<linearGradient id="SVGID_33_" gradientUnits="userSpaceOnUse" x1="399.5573" y1="332.3221" x2="405.4391" y2="-14.7036">
			<stop  offset="0" style="stop-color:#6DC0C5"/>
			<stop  offset="0.1468" style="stop-color:#81C6CB"/>
			<stop  offset="0.4281" style="stop-color:#ACD7DB"/>
			<stop  offset="0.8119" style="stop-color:#E5F2F3"/>
			<stop  offset="1" style="stop-color:#FFFFFF"/>
		</linearGradient>
		<path class="st32" d="M402.17,264.6c-2.01,0.37-2.79,0.1-2.89-0.96c-0.07-0.67,0.09-1.08,0.92-1.08
			C401.6,262.56,402.18,263.08,402.17,264.6z"/>
		<linearGradient id="SVGID_34_" gradientUnits="userSpaceOnUse" x1="406.3429" y1="332.4372" x2="412.2247" y2="-14.5886">
			<stop  offset="0" style="stop-color:#6DC0C5"/>
			<stop  offset="0.1468" style="stop-color:#81C6CB"/>
			<stop  offset="0.4281" style="stop-color:#ACD7DB"/>
			<stop  offset="0.8119" style="stop-color:#E5F2F3"/>
			<stop  offset="1" style="stop-color:#FFFFFF"/>
		</linearGradient>
		<path class="st33" d="M406.05,276.99c0.59-1.18,1.11-2.22,1.68-3.35c1.08,0.8,0.92,1.7,0.56,2.57
			C407.94,277.02,407.36,277.52,406.05,276.99z"/>
		<linearGradient id="SVGID_35_" gradientUnits="userSpaceOnUse" x1="396.6477" y1="332.2728" x2="402.5295" y2="-14.7529">
			<stop  offset="0" style="stop-color:#6DC0C5"/>
			<stop  offset="0.1468" style="stop-color:#81C6CB"/>
			<stop  offset="0.4281" style="stop-color:#ACD7DB"/>
			<stop  offset="0.8119" style="stop-color:#E5F2F3"/>
			<stop  offset="1" style="stop-color:#FFFFFF"/>
		</linearGradient>
		<path class="st34" d="M396.89,248.69c0.44-2.12,0.88-2.63,2.28-2.7C399.56,248.03,398.72,249.02,396.89,248.69z"/>
	</g>
</g>
</svg>
